<?xml version="1.0" encoding="UTF-8"?>
<!DOCTYPE svg PUBLIC "-//W3C//DTD SVG 1.1//EN" "http://www.w3.org/Graphics/SVG/1.1/DTD/svg11.dtd">
<!-- Creator: CorelDRAW -->
<svg xmlns="http://www.w3.org/2000/svg" xml:space="preserve" width="65.9064mm" height="20.4343mm" version="1.1" style="shape-rendering:geometricPrecision; text-rendering:geometricPrecision; image-rendering:optimizeQuality; fill-rule:evenodd; clip-rule:evenodd"
viewBox="0 0 6923.37 2146.59"
 xmlns:xlink="http://www.w3.org/1999/xlink"
 xmlns:xodm="http://www.corel.com/coreldraw/odm/2003">
 <defs>
  <style type="text/css">
   <![CDATA[
    .fil1 {fill:white}
    .fil0 {fill:white;fill-rule:nonzero}
   ]]>
  </style>
 </defs>
 <g id="Layer_x0020_1">
  <metadata id="CorelCorpID_0Corel-Layer"/>
  <g id="_3148470223408" style="color:yellow">
   <path class="fil0" d="M1228.41 559.8l90.85 24.96c-12.85,45.24 -35.88,79.93 -69.01,103.94 -33.01,24 -74.29,36 -123.74,36 -68.04,0 -119.41,-22.56 -154.09,-67.81 -34.69,-45.23 -52.08,-111.96 -52.08,-200.05 0,-86.52 18.36,-153.24 55.2,-200.3 36.72,-46.91 88.92,-70.44 156.36,-70.44 47.17,0 85.81,11.75 116.06,35.16 30.24,23.52 50.4,57.48 60.48,101.76l-90.6 22.21c-6.6,-25.09 -17.52,-44.05 -32.88,-57.01 -15.36,-12.84 -34.8,-19.32 -58.45,-19.32 -35.64,0 -62.16,15.6 -79.68,46.93 -17.65,31.33 -26.41,78.48 -26.41,141.85 0,61.33 8.76,106.69 26.41,135.97 17.52,29.28 44.76,43.92 81.84,43.92 24,0 45,-6.96 62.77,-20.88 17.88,-14.03 30.12,-33 36.97,-56.88zm237.14 -104.28c0,59.28 9.96,104.17 29.89,134.77 19.92,30.6 49.08,45.84 87.48,45.84 38.4,0 67.56,-15.24 87.48,-45.84 19.92,-30.6 29.88,-75.49 29.88,-134.77 0,-59.65 -9.96,-105.02 -29.88,-135.97 -19.93,-30.84 -49.09,-46.33 -87.48,-46.33 -38.41,0 -67.57,15.48 -87.48,46.33 -19.93,30.96 -29.89,76.33 -29.89,135.97zm-100.09 -0.13c0,-84.61 19.2,-150.61 57.61,-198.13 38.52,-47.41 91.69,-71.16 159.73,-71.16 67.92,0 121.22,23.75 159.74,71.16 38.52,47.52 57.84,113.53 57.84,198.13 0,84.13 -19.32,150.02 -57.97,197.77 -38.76,47.65 -91.93,71.53 -159.61,71.53 -67.57,0 -120.61,-23.88 -159.37,-71.53 -38.65,-47.76 -57.97,-113.64 -57.97,-197.77zm518.56 260.67l0 -523.49 105.12 0 150.62 262.95c11.51,20.4 22.2,41.04 32.04,61.93 9.83,20.87 18.84,41.88 27.12,63.24 -2.65,-15.48 -4.56,-32.04 -5.64,-49.68 -1.21,-17.76 -1.81,-36.72 -1.81,-56.77l0 -281.67 91.44 0 0 523.49 -91.44 0 -163.57 -270.03c-8.88,-15.24 -18.35,-33.48 -28.32,-54.84 -9.96,-21.37 -20.28,-45.01 -30.84,-71.05 2.41,14.4 4.09,30 5.16,47.17 1.08,17.04 1.57,36.97 1.57,59.4l0 289.35 -91.44 0zm608.33 0l0 -437.08 -137.53 0 0 -86.41 374.42 0 0 86.41 -137.53 0 0 437.08 -99.37 0zm406.11 -295.23l85.8 0c31.57,0 54.85,-5.88 69.73,-17.64 14.87,-11.77 22.32,-30.13 22.32,-55.33 0,-24.84 -7.45,-43.08 -22.32,-54.85 -14.89,-11.75 -38.16,-17.64 -69.73,-17.64l-85.8 0 0 145.45zm-96.49 295.23l0 -523.49 177.37 0c66.24,0 115.57,12.85 147.86,38.53 32.28,25.67 48.48,64.92 48.48,117.84 0,34.08 -8.28,62.41 -24.96,85.09 -16.57,22.8 -40.44,38.52 -71.64,47.17l116.05 234.86 -105.85 0 -100.82 -212.42 -90.01 0 0 212.42 -96.49 0zm575.33 -198.02l133.33 0 -66.84 -234.14 -66.49 234.14zm-150.49 198.02l157.93 -523.49 123.01 0 157.57 523.49 -98.41 0 -32.4 -114.49 -180.74 0 -33.49 114.49 -93.48 0zm776.21 -156.26l90.85 24.96c-12.84,45.24 -35.88,79.93 -69.01,103.94 -33,24 -74.28,36 -123.73,36 -68.04,0 -119.41,-22.56 -154.09,-67.81 -34.69,-45.23 -52.09,-111.96 -52.09,-200.05 0,-86.52 18.36,-153.24 55.2,-200.3 36.72,-46.91 88.93,-70.44 156.38,-70.44 47.17,0 85.8,11.75 116.05,35.16 30.24,23.52 50.4,57.48 60.49,101.76l-90.6 22.21c-6.61,-25.09 -17.52,-44.05 -32.88,-57.01 -15.37,-12.84 -34.81,-19.32 -58.45,-19.32 -35.64,0 -62.17,15.6 -79.69,46.93 -17.64,31.33 -26.4,78.48 -26.4,141.85 0,61.33 8.76,106.69 26.4,135.97 17.52,29.28 44.77,43.92 81.84,43.92 24.01,0 45.01,-6.96 62.78,-20.88 17.88,-14.03 30.12,-33 36.96,-56.88zm168.74 156.26l0 -523.49 98.64 0 0 207.38 199.46 0 0 -207.38 98.65 0 0 523.49 -98.65 0 0 -227.55 -199.46 0 0 227.55 -98.64 0zm516.16 0l0 -523.49 339.86 0 0 84.97 -241.94 0 0 123.84 176.42 0 0 83.53 -176.42 0 0 141.85 252.74 0 0 89.29 -350.66 0zm678.29 -100.33c-7.31,-11.28 -15.83,-20.28 -25.67,-27.12 -9.84,-6.72 -21.48,-11.52 -34.8,-14.4l0 -89.28c21.96,1.44 41.52,7.07 58.44,16.91 17.04,9.84 32.52,24.6 46.57,44.29 3.83,-9.12 6.48,-20.64 8.28,-34.56 1.8,-13.92 2.64,-30.36 2.64,-49.09 0,-62.88 -9.72,-110.29 -29.28,-141.85 -19.56,-31.57 -48.96,-47.41 -88.08,-47.41 -38.41,0 -67.57,15.48 -87.48,46.33 -19.93,30.96 -29.89,76.33 -29.89,135.97 0,59.28 9.96,104.17 29.89,134.77 19.92,30.6 49.08,45.84 87.48,45.84 11.75,0 22.68,-1.68 32.88,-5.16 10.2,-3.36 19.8,-8.4 29.04,-15.24zm168.5 139.94l-10.2 0c-23.16,0 -43.45,-4.69 -61.09,-14.04 -17.52,-9.36 -34.68,-24.36 -51.24,-45 -15.48,9.6 -32.04,16.68 -49.56,21.24 -17.64,4.56 -37.08,6.84 -58.45,6.84 -67.44,0 -120.61,-23.88 -159.25,-71.53 -38.76,-47.76 -58.08,-113.64 -58.08,-197.77 0,-84.61 19.2,-150.61 57.61,-198.13 38.52,-47.41 91.69,-71.16 159.73,-71.16 67.92,0 121.22,23.75 159.74,71.16 38.52,47.52 57.84,113.53 57.84,198.13 0,38.41 -4.08,73.09 -12.24,103.94 -8.28,30.84 -20.16,56.88 -35.88,78.24 9.36,9.6 19.09,16.92 29.16,21.85 10.08,4.92 20.53,7.68 31.57,8.39l0.36 87.85zm72.13 -231.98l0 -331.11 98.64 0 0 335.3c0,38.89 7.81,67.09 23.53,84.37 15.72,17.4 41.04,26.04 75.85,26.04 37.08,0 63.48,-8.4 79.21,-25.09 15.84,-16.8 23.75,-45.24 23.75,-85.33l0 -335.3 95.77 0 0 346.95c0,59.52 -17.16,105.25 -51.48,137.17 -34.45,32.04 -83.41,48 -147.25,48 -66.61,0 -116.29,-16.57 -148.94,-49.69 -32.76,-33.24 -49.08,-83.64 -49.08,-151.32zm516.16 192.38l0 -523.49 339.87 0 0 84.97 -241.95 0 0 123.84 176.42 0 0 83.53 -176.42 0 0 141.85 252.75 0 0 89.29 -350.67 0z"/>
   <path class="fil0" d="M2800.4 2045.33l0 -374.88 29.08 -29.09 86.72 86.72 0 273.89 -115.79 43.35zm461.87 -821.94l-346.07 0 -115.79 -43.36 0 -72.43 461.87 0 57.63 57.89 -57.63 57.9zm-346.07 28.81l0 273.89 -86.72 86.72 -29.08 -29.08 0 -374.89 115.79 43.35zm375.95 274.43l0 -302.98 43.35 -43.36 72.44 72.18 0 331.8 -28.81 28.81 -86.98 -86.44zm86.98 115.27l28.81 28.81 0 331.8 -72.44 71.91 -43.35 -43.09 0 -302.98 86.98 -86.44zm-60.54 446.79l-57.64 57.9 -460.54 0 0 -72.44 115.79 -43.35 344.75 0 57.64 57.89zm231.59 -562.86l0 -302.98 43.35 -115.26c38.61,9.52 62.92,33.57 72.44,72.17l0 403.71 -28.81 28.81 -86.98 -86.45zm86.98 101.78l28.81 28.83 0 403.7c-9.52,38.59 -33.84,62.66 -72.44,72.18l-43.35 -115.27 0 -302.98 86.98 -86.45zm664.38 -58.43l57.63 57.9 -57.63 57.9 -129.81 0 -57.64 -57.9 57.64 -57.9 129.81 0zm86.98 72.18l28.81 28.81 0 403.97c-9.52,38.33 -33.84,62.39 -72.44,71.91l-43.35 -115.26 0 -302.72 86.98 -86.72zm-72.44 505.23l-433.84 0c-38.34,-9.79 -62.4,-33.85 -71.92,-72.44l115.27 -43.35 347.13 0 43.35 115.79zm-506.28 -101.27l0 -374.88 29.08 -29.09 86.72 86.72 0 273.89 -115.79 43.35zm506.28 -821.94l-388.9 0 -115.79 -43.36c9.52,-38.59 33.84,-62.91 72.18,-72.43l475.88 0 -43.36 115.79zm-390.49 28.81l0 273.89 -86.72 86.72 -29.08 -29.08 0 -374.89 115.79 43.35zm633.98 273.63l0 -302.98 43.36 -115.26c38.59,9.52 62.91,33.57 72.43,72.17l0 403.71 -28.81 28.81 -86.98 -86.45zm86.98 101.78l28.81 28.83 0 403.7c-9.52,38.59 -33.84,62.66 -72.43,72.18l-43.36 -115.27 0 -302.98 86.98 -86.45zm474.82 14.29l57.9 57.63 0 374.89c-9.52,38.61 -33.84,62.66 -72.44,72.18l-43.35 -115.27 0 -331.8 57.89 -57.63zm-57.89 -86.45l0 -302.98 115.79 0 0 302.98 -57.9 57.63 -57.89 -57.63zm-128.23 -332.06l-115.26 -43.36c9.52,-38.59 33.57,-62.91 71.91,-72.43l460.02 0c38.61,9.52 62.66,33.84 72.18,72.43l-115.27 43.36 -373.57 0zm1124.15 345.8l57.63 57.9 -57.63 57.9 -375.95 0 -57.64 -57.9 57.64 -57.9 375.95 0zm86.98 72.71l28.81 28.81 0 403.7c-9.52,38.61 -33.85,62.66 -72.44,72.18l-43.35 -115.27 0 -302.98 86.98 -86.44zm-115.81 -418.51l-345.54 0 -115.81 -43.36c9.53,-38.59 33.85,-62.91 72.18,-72.43l432.53 0 -43.36 115.79zm-347.12 28.81l0 273.89 -86.72 86.72 -29.08 -29.08 0 -374.89 115.79 43.35zm375.95 273.89l0 -302.71 43.35 -115.27c38.59,9.52 62.92,33.57 72.44,71.91l0 403.97 -28.81 28.81 -86.98 -86.72zm-375.95 202.25l0 302.98 -43.36 115.27c-38.59,-9.52 -62.65,-33.57 -72.43,-72.18l0 -403.7 29.08 -28.81 86.72 86.44zm749.77 -0.26l0 302.72 -43.36 115.26c-38.59,-9.52 -62.65,-33.57 -72.43,-71.91l0 -403.97 29.08 -28.81 86.72 86.72zm28.81 302.72l346.07 0 115.27 43.35c-9.52,38.59 -33.57,62.65 -71.91,72.44l-432.79 0 43.35 -115.79zm-115.53 -418.51l-29.08 -28.81 0 -403.71c9.78,-38.59 33.84,-62.65 72.43,-72.17l43.36 115.26 0 302.98 -86.72 86.45z"/>
   <path class="fil1" d="M2499.95 941.55l0 1167.22c0,25.22 -12.6,37.83 -37.82,37.83l-2388.48 0c-12.61,0 -27.02,-14.42 -27.02,-27.02l0 -1183.43c0,-44.96 52.72,-37.93 97.25,-37.83l558.61 0 -147.49 -138.91c-59.72,-49.92 -161.01,-155.76 -218.61,-213.7 -26.04,-26.19 -49.12,-43.68 -75.66,-70.24 -34.69,-34.72 -113.64,-122.05 -147.26,-144.56 0,57.94 15.16,88.08 58.12,136.42l105.52 94.42c44.21,32.9 127.01,87.71 158.35,133.45 78.54,114.63 -46.82,210.03 -60.1,131.24 -3.17,-18.86 46.18,-69.26 -20.95,-120.44 -20.73,-15.79 -32.74,-27.17 -54.13,-43.14 -48.5,-36.24 -113.82,-83.22 -155.8,-125.2 -17.46,-17.47 -29.57,-32.66 -45.64,-51.63 -51.17,-60.37 -73.6,-134.35 -34.01,-209.15 -31.08,-46.42 -64.85,-72.67 -64.85,-140.5 0,-52.52 96.06,-222.21 266.05,-82.31 87,71.6 208.48,197.26 289.24,288.97 44.95,51.04 134.4,124.82 174.22,177.01 16.51,21.64 35.36,38.09 55.39,58.09 10.57,10.55 20.01,18.65 29.48,29.97 11.81,14.12 13.39,18.53 27.19,32.25 53.94,53.68 143.5,157.72 192.26,218.43 5.45,6.78 22.9,30.42 26.43,33.02 25.57,18.76 181.01,6.51 225.85,6.51l1138.32 -0.14c42.21,-0.29 75.52,2.01 75.52,43.37zm-1457.01 145.89l47.51 -44.37c-12.78,-19.62 -32.03,-43.61 -47.45,-63.75 -16.93,-22.13 -34.39,-43.44 -52.85,-66.03 -18.66,-22.83 -34.32,-43.02 -53.89,-64.99l-54.13 -64.75c-46.46,-52.28 -197.27,-221.12 -228.26,-241.87 -14.69,9.83 -16.43,13.76 -27.18,26.87l-80.9 86.6c22.06,32.95 141.26,132.29 177,168.86 41.04,42 205.65,177.4 252.26,212.45 25.18,18.94 42.37,33.92 67.88,51zm216.15 129.69c0,23.77 -21.11,37.83 -48.63,37.83 -76.06,0 -323.28,-193.5 -379.62,-247.22 -8.57,-8.17 -42.3,-39.17 -52.68,-39.17l-666.68 0 0 1107.77 2004.81 0c0,-43.17 -2.98,-34.26 5.41,-70.25 34.2,-7.97 19.82,-7.97 54.04,0 8.38,35.99 5.4,27.07 5.4,70.25l248.58 0 0 -1107.77 -248.58 0c0,50.43 8.85,81.06 -37.83,81.06 -36.32,0 -27.02,-58.7 -27.02,-81.06l-992.29 0c4.73,17.68 5.99,13.06 16.06,27.18l59.65 86.23c18.9,28.46 59.38,91.06 59.38,135.16zm-1030.8 -1106.46c-20.55,-14.19 -52.72,-44.55 -82.38,-44.55 -71.95,0 -109.24,105.27 -32.42,156.71l114.8 -112.16zm198.63 425.58l109.33 -112.22c-21.52,-39.55 -92.89,-101.06 -126.9,-135 -36.8,-36.75 -89.21,-104.85 -128.34,-131.05l-120.21 117.56c34.96,51.01 77.98,80.69 129.66,132.36 40.65,40.66 90.85,97.81 136.45,128.35zm179.64 -41.91l-18.46 -22.1 -113.87 111.33 18.45 22.1 113.88 -111.33zm566.08 674.16c-9.01,-17.05 -29.52,-54.8 -43.23,-64.85l-28.25 25.79c25.05,13.83 44.11,32.68 71.48,39.06z"/>
   <g>
    <path class="fil1" d="M1557.97 1919.64l37.83 0c374.87,0 482.13,-530.57 135.09,-686.29 -148.99,-66.85 -319.38,-25.05 -425.68,103.89 -11.27,13.68 -17.55,22.53 -27.25,37.61 -99.33,154.4 -52.61,361.07 84.55,470.05 40.14,31.88 125.17,74.74 195.45,74.74zm-264.79 -356.65c0,-264.83 318.69,-386.83 498.65,-206.86 168.45,168.45 76.21,485.51 -202.92,495.61 -85.66,3.1 -161.76,-33.8 -208.04,-79.24 -46.82,-45.97 -87.69,-119.01 -87.69,-209.51z"/>
    <path class="fil1" d="M1557.97 1303.6c-5.16,22.12 -5.4,25.37 -5.4,54.04 -43.05,3.58 -95.99,50.92 -99.19,110.25 -1.17,21.64 3.27,42.03 16.27,59.12 17.91,23.56 -14.18,-15.52 4.94,5.87 7.26,8.12 2.78,3.2 8.07,8.14 25.71,24.06 40.14,22.42 69.91,38.17l0 118.88c-55.18,-12.86 -57.98,-48.64 -86.47,-48.64 -67.4,0 -20.19,110.01 86.47,118.88 0,49.32 1.79,59.44 37.83,59.44 32.37,0 27.02,-43.02 27.02,-59.44 85.59,-1.91 171.49,-114.23 79.85,-198.73 -28.16,-25.98 -46.17,-28.28 -79.85,-44.44l0 -102.67c39.99,3.33 59.98,37.83 81.06,37.83 77.31,0 25.94,-99.18 -81.06,-108.07 0,-41.48 -8.61,-68.37 -59.45,-48.64zm-37.83 167.51c0,-19.05 20.46,-35.21 32.43,-43.23l0 75.66c-17.96,-4.18 -32.43,-11.09 -32.43,-32.43zm97.27 226.97l0 -97.27c70.39,16.41 61.52,92.15 0,97.27z"/>
   </g>
   <path class="fil1" d="M182.68 1433.29c0,25.22 12.6,37.82 37.83,37.82 111.92,0 713.07,8.5 772.74,-5.4 22.26,-46.39 1.2,-64.85 -54.04,-64.85l-691.68 0c-27.8,0 -64.85,6.12 -64.85,32.43z"/>
   <path class="fil1" d="M182.68 1287.39c0,17.5 23.48,32.42 43.23,32.42l724.11 0c77.86,0 53.41,-70.25 21.62,-70.25l-751.13 0c-25.23,0 -37.83,12.6 -37.83,37.83z"/>
   <path class="fil1" d="M803.16 1838.57c-7.88,-29.5 -35.4,-32.42 -64.85,-32.42 -37.63,0 -47.6,34.3 -81.06,43.23 -17.8,-66.62 -84.09,-44.33 -135.09,0 -9.3,-6.23 -53.01,-62.51 -109.67,-12.4 -40.17,35.52 -31.75,50.12 -25.42,77.24 31.15,7.26 42.46,14.47 70.25,-27.02 23.83,15.96 33.53,37.46 71.49,28.77 30.27,-6.93 49.69,-26.49 74.42,-39.58 11.63,49.93 64.51,57.16 123.51,10.02 7.83,-6.24 14.68,-10.25 22.4,-15.42 28.62,54.08 79.97,49.9 115.79,2.31 53.06,-70.48 113.74,-34.74 192.22,-34.74 12.84,-19.16 16.21,-8.5 16.21,-37.83 0,-43.28 -173.51,-63.45 -244.72,9.25 -10.28,10.49 -14.61,20.62 -25.46,28.57z"/>
   <path class="fil1" d="M182.68 1600.8c0,25.23 12.6,37.83 37.83,37.83l426.9 0c53.95,0 49.02,-70.25 -5.4,-70.25l-416.1 0c-19.75,0 -43.23,14.92 -43.23,32.42z"/>
   <path class="fil1" d="M2175.72 1136.08c11.3,48.53 5.4,115.9 5.4,167.52 0,50.74 -64.85,50.74 -64.85,0 0,-51.62 -5.89,-118.99 5.41,-167.52 23.25,-11.16 30.75,-11.54 54.04,0z"/>
   <path class="fil1" d="M2181.12 1444.09c0,52.83 5.96,129.56 -5.4,178.33 -34.21,7.97 -19.83,7.97 -54.04,0 -11.37,-48.77 -5.41,-125.5 -5.41,-178.33 0,-34.86 64.85,-34.86 64.85,0z"/>
   <path class="fil1" d="M2181.12 1735.91l0 156.71c0,36.08 -64.85,36.08 -64.85,0l0 -156.71c0,-36.09 64.85,-36.09 64.85,0z"/>
  </g>
 </g>
</svg>
