<?xml version="1.0" encoding="UTF-8"?>
<!DOCTYPE svg PUBLIC "-//W3C//DTD SVG 1.1//EN" "http://www.w3.org/Graphics/SVG/1.1/DTD/svg11.dtd">
<!-- Creator: CorelDRAW -->
<svg xmlns="http://www.w3.org/2000/svg" xml:space="preserve" width="33.6998mm" height="33.6986mm" version="1.1" style="shape-rendering:geometricPrecision; text-rendering:geometricPrecision; image-rendering:optimizeQuality; fill-rule:evenodd; clip-rule:evenodd"
viewBox="0 0 776.98 776.95"
 xmlns:xlink="http://www.w3.org/1999/xlink"
 xmlns:xodm="http://www.corel.com/coreldraw/odm/2003">
 <defs>
  <style type="text/css">
   <![CDATA[
    .fil0 {fill:#CCCCCC}
    .fil1 {fill:#ED2600}
   ]]>
  </style>
 </defs>
 <g id="Layer_x0020_1">
  <metadata id="CorelCorpID_0Corel-Layer"/>
  <path class="fil0" d="M364.67 0.88c-205.99,13.69 -378.25,188.48 -363.82,412.05 13.37,207.21 189.65,376.66 412.95,363.28 205.17,-12.3 375.55,-189.86 362.47,-412.09 -12.07,-204.99 -190.06,-377.96 -411.6,-363.24z"/>
  <path class="fil1" d="M371.94 158.79c-53.81,8.73 -100.5,58.62 -90.15,123.99 8.39,52.97 59.09,99.35 123.86,89.5 53.31,-8.11 99.55,-59.33 89.74,-123.75 -8.1,-53.23 -60.2,-100.01 -123.45,-89.74zm-109.13 214.79c-48.37,6.91 -70.39,55.29 -78.67,97.61 -5.28,26.97 -4.12,53.74 -1.93,81.36 2.23,28.27 9.52,49.39 31.25,57.9 20.34,7.97 139.83,4.26 171.2,4.26 33.47,0 150.83,4.05 174.63,-2.77 22.3,-6.39 32.38,-25.62 35.03,-52.99 2.52,-26.06 4.08,-54.91 -0.16,-81.07 -7.7,-47.5 -31.48,-94.64 -74.32,-103.49 -56.08,-11.59 -71.17,43.68 -127.31,46.36 -60.11,2.86 -75.73,-54.87 -129.73,-47.16z"/>
 </g>
</svg>
